<?xml version="1.0" standalone="no"?>
<!DOCTYPE svg PUBLIC "-//W3C//DTD SVG 20010904//EN"
 "http://www.w3.org/TR/2001/REC-SVG-20010904/DTD/svg10.dtd">
<svg version="1.0" xmlns="http://www.w3.org/2000/svg"
 width="819.000000pt" height="819.000000pt" viewBox="0 0 819.000000 819.000000"
 preserveAspectRatio="xMidYMid meet">
<metadata>
Created by potrace 1.11, written by Peter Selinger 2001-2013
</metadata>
<g transform="translate(0.000000,819.000000) scale(0.100000,-0.100000)"
fill="#000000" stroke="none">
<path d="M0 4095 l0 -4095 4095 0 4095 0 0 4095 0 4095 -4095 0 -4095 0 0
-4095z m1944 1018 c-180 -915 -330 -1719 -320 -1725 31 -21 62 1 284 203 l232
210 80 -73 81 -73 -143 -138 c-318 -308 -411 -368 -570 -368 -174 -1 -260 95
-245 276 3 38 67 386 141 773 75 387 136 706 136 708 0 3 -99 4 -221 4 -121
-1 -222 0 -224 2 -3 3 8 72 30 196 l6 32 369 0 370 0 -6 -27z m3355 -574 c132
-56 211 -226 195 -421 -3 -40 -37 -267 -76 -505 l-71 -432 -139 -3 c-77 -2
-141 -2 -142 -1 -1 2 30 200 70 440 41 241 74 463 74 493 0 106 -40 189 -106
216 -54 23 -151 18 -212 -11 -96 -44 -214 -191 -256 -318 -9 -26 -43 -210 -76
-410 -33 -199 -63 -373 -65 -387 l-5 -25 -140 0 c-77 0 -140 2 -140 5 0 3 50
310 112 683 l113 677 143 0 142 0 -5 -22 c-17 -68 -51 -298 -44 -298 4 0 10 9
14 20 12 38 106 172 155 221 28 28 75 61 105 75 99 46 253 47 354 3z m1151 3
c69 -52 106 -149 116 -309 4 -57 10 -103 14 -103 4 0 17 35 29 78 52 177 143
299 257 341 61 23 155 27 218 10 52 -14 119 -79 147 -142 20 -46 23 -68 24
-192 l0 -140 -50 -7 c-27 -4 -81 -10 -120 -13 l-70 -7 -1 109 c0 151 -25 193
-111 193 -145 0 -261 -241 -291 -605 -9 -103 -2 -287 13 -354 13 -58 33 -50
231 88 l186 130 60 -77 59 -77 -53 -48 c-243 -219 -390 -293 -531 -266 -118
22 -173 122 -192 352 -4 42 -10 77 -14 77 -5 0 -16 -30 -26 -66 -50 -184 -150
-311 -278 -353 -58 -20 -178 -16 -229 7 -49 21 -101 76 -124 130 -21 50 -34
182 -26 267 l7 70 65 7 c36 4 89 9 118 12 l52 6 0 -87 c0 -155 29 -213 108
-213 85 0 130 37 189 155 77 151 107 314 107 580 1 110 -2 212 -7 227 -14 53
-35 45 -238 -86 l-193 -124 -53 71 c-29 40 -52 77 -53 84 0 22 253 204 359
258 107 54 241 61 301 17z m-3340 -17 c0 -8 -29 -191 -65 -407 -72 -434 -79
-520 -47 -589 12 -24 27 -52 35 -61 39 -49 176 -64 255 -28 88 40 207 180 254
302 12 30 47 210 82 423 l62 370 143 3 143 3 -6 -28 c-3 -15 -53 -314 -111
-663 -58 -349 -115 -672 -125 -717 -53 -223 -150 -357 -325 -444 -107 -53
-199 -71 -360 -71 -149 1 -249 19 -340 63 -64 31 -155 103 -155 122 0 7 38 50
84 96 l84 84 43 -37 c159 -135 449 -135 585 0 42 43 88 131 108 210 17 65 67
376 62 381 -2 2 -24 -32 -49 -76 -65 -111 -144 -193 -225 -233 -58 -29 -77
-33 -166 -36 -85 -3 -110 0 -158 17 -76 29 -126 71 -169 141 -79 130 -77 233
15 788 36 216 66 395 66 398 0 2 63 4 140 4 117 0 140 -2 140 -15z"/>
</g>
</svg>
